<svg xmlns="http://www.w3.org/2000/svg" width="512" height="512" viewBox="0 0 512 512">
  <defs>
    <linearGradient id="bg" x1="0" y1="0" x2="1" y2="1">
      <stop offset="0%" stop-color="#f0e0bb"/>
      <stop offset="100%" stop-color="#d9c090"/>
    </linearGradient>
    <filter id="grain">
      <feTurbulence type="fractalNoise" baseFrequency="0.6" numOctaves="2" seed="21"/>
      <feColorMatrix type="saturate" values="0"/>
      <feComponentTransfer>
        <feFuncA type="table" tableValues="0 0.09"/>
      </feComponentTransfer>
    </filter>
  </defs>
  <rect width="512" height="512" fill="url(#bg)"/>
  <g stroke="#90744e" stroke-width="1" opacity="0.18">
    <path d="M0 48H512"/>
    <path d="M0 96H512"/>
    <path d="M0 144H512"/>
    <path d="M0 192H512"/>
    <path d="M0 240H512"/>
    <path d="M0 288H512"/>
    <path d="M0 336H512"/>
    <path d="M0 384H512"/>
    <path d="M0 432H512"/>
  </g>
  <g stroke="#7d5d36" stroke-width="1" opacity="0.14">
    <path d="M48 0V512"/>
    <path d="M96 0V512"/>
    <path d="M144 0V512"/>
    <path d="M192 0V512"/>
    <path d="M240 0V512"/>
    <path d="M288 0V512"/>
    <path d="M336 0V512"/>
    <path d="M384 0V512"/>
    <path d="M432 0V512"/>
  </g>
  <ellipse cx="108" cy="126" rx="86" ry="54" fill="#c89f56" opacity="0.14"/>
  <ellipse cx="406" cy="338" rx="102" ry="68" fill="#ab7d3c" opacity="0.12"/>
  <rect width="512" height="512" filter="url(#grain)" opacity="0.85"/>
</svg>
