<svg xmlns="http://www.w3.org/2000/svg" width="512" height="512" viewBox="0 0 512 512">
  <defs>
    <linearGradient id="bg" x1="0" y1="0" x2="0" y2="1">
      <stop offset="0%" stop-color="#223246"/>
      <stop offset="100%" stop-color="#15202d"/>
    </linearGradient>
  </defs>
  <rect width="512" height="512" fill="url(#bg)"/>
  <g stroke="#5f87a8" stroke-width="1" opacity="0.4">
    <path d="M0 32H512"/>
    <path d="M0 64H512"/>
    <path d="M0 96H512"/>
    <path d="M0 128H512"/>
    <path d="M0 160H512"/>
    <path d="M0 192H512"/>
    <path d="M0 224H512"/>
    <path d="M0 256H512"/>
    <path d="M0 288H512"/>
    <path d="M0 320H512"/>
    <path d="M0 352H512"/>
    <path d="M0 384H512"/>
    <path d="M0 416H512"/>
    <path d="M0 448H512"/>
    <path d="M0 480H512"/>
  </g>
  <g stroke="#5f87a8" stroke-width="1" opacity="0.28">
    <path d="M32 0V512"/>
    <path d="M64 0V512"/>
    <path d="M96 0V512"/>
    <path d="M128 0V512"/>
    <path d="M160 0V512"/>
    <path d="M192 0V512"/>
    <path d="M224 0V512"/>
    <path d="M256 0V512"/>
    <path d="M288 0V512"/>
    <path d="M320 0V512"/>
    <path d="M352 0V512"/>
    <path d="M384 0V512"/>
    <path d="M416 0V512"/>
    <path d="M448 0V512"/>
    <path d="M480 0V512"/>
  </g>
</svg>
